<?xml version="1.0" encoding="utf-8"?>
<!-- Generator: Adobe Illustrator 19.0.0, SVG Export Plug-In . SVG Version: 6.00 Build 0)  -->
<svg version="1.1" id="Layer_1" xmlns="http://www.w3.org/2000/svg" xmlns:xlink="http://www.w3.org/1999/xlink" x="0px" y="0px"
	 viewBox="-269 361 72 72" style="enable-background:new -269 361 72 72;" xml:space="preserve">
<style type="text/css">
	.st0{fill:#FF4500;}
	.st1{fill:#FFFFFF;}
</style>
<title>Reddit Logo</title>
<desc>Created with Sketch.</desc>
<g id="About" transform="translate(-572.000000, -278.000000)">
	<g id="_x2F__x2F_Header" transform="translate(-87.000000, 32.000000)">
		<g id="::Body-Content" transform="translate(385.000000, 246.000000)">
			<g id="Reddit-Logo" transform="translate(274.000000, 0.000000)">
				<g id="Logo">
					<g id="snoo">
						<path id="Fill-1" class="st0" d="M-233,433c-19.9,0-36-16.1-36-36s16.1-36,36-36s36,16.1,36,36S-213.1,433-233,433z"/>
						<path id="Fill-3" class="st1" d="M-224.8,404.5c-2.1,0-3.7-1.7-3.7-3.7c0-2.1,1.7-3.8,3.7-3.8s3.7,1.7,3.7,3.8
							C-221,402.8-222.7,404.5-224.8,404.5 M-224.1,410.7c-2.6,2.6-7.5,2.8-8.9,2.8c-1.4,0-6.3-0.2-8.9-2.8c-0.4-0.4-0.4-1,0-1.4
							c0.4-0.4,1-0.4,1.4,0c1.6,1.6,5.1,2.2,7.5,2.2c2.5,0,5.9-0.6,7.5-2.2c0.4-0.4,1-0.4,1.4,0
							C-223.7,409.7-223.7,410.3-224.1,410.7 M-245,400.8c0-2.1,1.7-3.8,3.8-3.8c2.1,0,3.7,1.7,3.7,3.8c0,2.1-1.7,3.7-3.7,3.7
							C-243.3,404.5-245,402.8-245,400.8 M-209,397c0-2.9-2.4-5.3-5.3-5.3c-1.4,0-2.7,0.6-3.6,1.5c-3.6-2.6-8.5-4.3-14-4.5l2.4-11.3
							l7.8,1.7c0.1,2,1.7,3.6,3.7,3.6c2.1,0,3.7-1.7,3.7-3.7c0-2.1-1.7-3.7-3.7-3.7c-1.5,0-2.7,0.9-3.3,2.1l-8.7-1.9
							c-0.2-0.1-0.5,0-0.7,0.1c-0.2,0.1-0.4,0.3-0.4,0.6l-2.6,12.3c0,0.1,0,0.1,0,0.2c-5.6,0.1-10.6,1.8-14.3,4.4
							c-0.9-0.9-2.2-1.5-3.6-1.5c-2.9,0-5.3,2.4-5.3,5.3c0,2.1,1.3,4,3.1,4.8c-0.1,0.5-0.1,1.1-0.1,1.6c0,8.1,9.4,14.6,21,14.6
							c11.6,0,21-6.5,21-14.6c0-0.5,0-1.1-0.1-1.6C-210.3,401-209,399.1-209,397"/>
					</g>
				</g>
			</g>
		</g>
	</g>
</g>
</svg>
